<?xml version="1.0" encoding="UTF-8" standalone="no"?>
<!DOCTYPE svg PUBLIC "-//W3C//DTD SVG 1.0//EN" "http://www.w3.org/TR/2001/REC-SVG-20010904/DTD/svg10.dtd">
<svg xmlns="http://www.w3.org/2000/svg" version="1.0" viewBox="0.00 0.00 342.00 126.00">
<path fill="#ffffff" d="
  M 118.3298 68.3946
  A 27.34 26.89 -0.2 0 1 91.0839 95.3798
  A 27.34 26.89 -0.2 0 1 63.6502 68.5854
  A 27.34 26.89 -0.2 0 1 90.8961 41.6002
  A 27.34 26.89 -0.2 0 1 118.3298 68.3946
  Z
  M 114.12 68.50
  A 23.12 22.76 0.0 0 0 91.00 45.74
  A 23.12 22.76 0.0 0 0 67.88 68.50
  A 23.12 22.76 0.0 0 0 91.00 91.26
  A 23.12 22.76 0.0 0 0 114.12 68.50
  Z"
/>
<path fill="#ffffff" d="
  M 34.53 49.03
  L 57.13 49.02
  A 0.40 0.40 0.0 0 1 57.53 49.42
  L 57.48 52.84
  A 0.40 0.40 0.0 0 1 57.08 53.24
  L 30.75 53.25
  A 0.40 0.40 0.0 0 1 30.48 52.55
  L 34.27 49.13
  A 0.40 0.40 0.0 0 1 34.53 49.03
  Z"
/>
<rect fill="#ffffff" x="126.00" y="49.00" width="4.50" height="37.32" rx="0.62"/>
<path fill="#ffffff" d="
  M 152.88 53.23
  L 131.45 53.24
  A 0.34 0.34 0.0 0 1 131.11 52.90
  L 131.08 49.38
  A 0.34 0.34 0.0 0 1 131.42 49.04
  L 149.10 49.03
  A 0.34 0.34 0.0 0 1 149.33 49.12
  L 153.11 52.64
  A 0.34 0.34 0.0 0 1 152.88 53.23
  Z"
/>
<path fill="#ffffff" d="
  M 164.60 49.03
  L 187.07 49.03
  A 0.45 0.45 0.0 0 1 187.52 49.48
  L 187.52 52.78
  A 0.45 0.45 0.0 0 1 187.07 53.23
  L 160.91 53.25
  A 0.45 0.45 0.0 0 1 160.61 52.46
  L 164.30 49.15
  A 0.45 0.45 0.0 0 1 164.60 49.03
  Z"
/>
<rect fill="#ffffff" x="-9.67" y="-2.10" transform="translate(208.46,51.13) rotate(-0.1)" width="19.34" height="4.20" rx="0.47"/>
<rect fill="#ffffff" x="225.27" y="49.03" width="23.20" height="4.22" rx="0.34"/>
<rect fill="#ffffff" x="254.51" y="49.01" width="4.48" height="37.30" rx="0.50"/>
<path fill="#ffffff" d="
  M 277.66 89.46
  L 277.62 49.63
  A 0.63 0.63 0.0 0 1 278.25 49.00
  L 281.38 48.98
  A 0.63 0.63 0.0 0 1 282.01 49.61
  L 282.00 86.78
  A 0.63 0.63 0.0 0 1 281.78 87.26
  L 278.70 89.94
  A 0.63 0.63 0.0 0 1 277.66 89.46
  Z"
/>
<rect fill="#ffffff" x="293.36" y="49.04" width="19.36" height="4.18" rx="0.55"/>
<path fill="#ffffff" d="
  M 193.77 62.45
  L 193.78 53.47
  A 0.34 0.34 0.0 0 1 193.89 53.22
  L 197.57 49.72
  A 0.34 0.34 0.0 0 1 198.14 49.97
  L 198.21 66.05
  A 0.34 0.34 0.0 0 1 197.63 66.30
  L 193.88 62.70
  A 0.34 0.34 0.0 0 1 193.77 62.45
  Z"
/>
<path fill="#ffffff" d="
  M 288.25 62.37
  L 288.24 53.59
  A 0.33 0.33 0.0 0 1 288.34 53.35
  L 292.17 49.65
  A 0.33 0.33 0.0 0 1 292.73 49.88
  L 292.81 66.22
  A 0.33 0.33 0.0 0 1 292.24 66.45
  L 288.35 62.61
  A 0.33 0.33 0.0 0 1 288.25 62.37
  Z"
/>
<rect fill="#ffffff" x="234.50" y="53.65" width="4.48" height="32.74" rx="0.91"/>
<path fill="#ffffff" d="
  M 29.75 86.40
  L 29.76 54.27
  A 0.42 0.42 0.0 0 1 30.18 53.85
  L 33.81 53.84
  A 0.42 0.42 0.0 0 1 34.23 54.26
  L 34.17 89.95
  A 0.42 0.42 0.0 0 1 33.46 90.24
  L 29.87 86.70
  A 0.42 0.42 0.0 0 1 29.75 86.40
  Z"
/>
<path fill="#ffffff" d="
  M 148.77 89.94
  A 0.12 0.12 0.0 0 0 148.90 90.06
  L 149.19 90.04
  Q 149.45 90.03 149.45 89.77
  L 149.46 54.18
  Q 149.46 54.04 149.59 54.00
  Q 151.09 53.54 153.61 53.98
  Q 153.79 54.01 153.79 54.19
  L 153.79 86.03
  Q 153.79 86.58 153.42 86.97
  C 151.18 89.37 149.86 90.98 146.06 90.99
  Q 136.03 91.01 126.82 90.99
  Q 126.03 90.99 126.02 90.19
  L 125.99 87.65
  Q 125.98 86.79 126.85 86.79
  L 147.99 86.76
  Q 148.72 86.76 148.73 87.49
  L 148.77 89.94
  Z"
/>
<path fill="#ffffff" d="
  M 164.55 66.72
  L 182.16 66.73
  A 0.34 0.34 0.0 0 1 182.50 67.07
  L 182.51 70.50
  A 0.34 0.34 0.0 0 1 182.17 70.84
  L 164.59 70.84
  A 0.34 0.34 0.0 0 0 164.25 71.18
  L 164.15 90.06
  A 0.34 0.34 0.0 0 1 163.58 90.31
  L 159.88 86.73
  A 0.34 0.34 0.0 0 1 159.78 86.49
  L 159.77 71.22
  A 0.34 0.34 0.0 0 1 159.87 70.98
  L 161.87 68.94
  A 0.34 0.34 0.0 0 0 161.85 68.44
  L 159.89 66.73
  A 0.34 0.34 0.0 0 1 159.77 66.48
  L 159.78 54.15
  A 0.34 0.34 0.0 0 1 160.12 53.81
  L 163.88 53.87
  A 0.34 0.34 0.0 0 1 164.22 54.21
  L 164.21 66.38
  A 0.34 0.34 0.0 0 0 164.55 66.72
  Z"
/>
<path fill="#ffffff" d="
  M 80.26 69.03
  L 89.08 77.77
  A 0.71 0.71 0.0 0 1 89.29 78.32
  L 89.07 82.09
  A 0.71 0.71 0.0 0 1 87.87 82.56
  L 74.02 68.99
  A 0.71 0.71 0.0 0 1 74.02 67.97
  L 87.86 54.44
  A 0.71 0.71 0.0 0 1 89.06 54.90
  L 89.32 58.63
  A 0.71 0.71 0.0 0 1 89.11 59.18
  L 80.25 68.03
  A 0.71 0.71 0.0 0 0 80.26 69.03
  Z"
/>
<path fill="#ffffff" d="
  M 101.97 68.07
  L 93.34 59.45
  A 0.61 0.61 0.0 0 1 93.17 58.99
  L 93.40 54.79
  A 0.61 0.61 0.0 0 1 94.44 54.39
  L 108.36 68.05
  A 0.61 0.61 0.0 0 1 108.36 68.93
  L 94.43 82.61
  A 0.61 0.61 0.0 0 1 93.39 82.21
  L 93.17 78.03
  A 0.61 0.61 0.0 0 1 93.35 77.57
  L 101.97 68.93
  A 0.61 0.61 0.0 0 0 101.97 68.07
  Z"
/>
<path fill="#ffffff" d="
  M 199.33 62.68
  L 219.05 74.00
  A 0.40 0.40 0.0 0 1 219.25 74.34
  L 219.32 78.31
  A 0.40 0.40 0.0 0 1 218.72 78.66
  L 199.07 67.38
  A 0.40 0.40 0.0 0 1 198.87 67.05
  L 198.73 63.04
  A 0.40 0.40 0.0 0 1 199.33 62.68
  Z"
/>
<path fill="#ffffff" d="
  M 313.26 78.70
  L 293.52 67.35
  A 0.35 0.35 0.0 0 1 293.34 67.04
  L 293.39 63.01
  A 0.35 0.35 0.0 0 1 293.92 62.71
  L 313.60 74.02
  A 0.35 0.35 0.0 0 1 313.77 74.32
  L 313.79 78.39
  A 0.35 0.35 0.0 0 1 313.26 78.70
  Z"
/>
<path fill="#ffffff" d="
  M 308.74 89.84
  Q 308.74 90.00 308.91 90.01
  L 309.17 90.02
  Q 309.34 90.02 309.34 89.86
  L 309.39 77.74
  Q 309.40 77.01 310.02 77.40
  L 313.16 79.34
  Q 313.76 79.72 313.76 80.43
  L 313.77 85.83
  Q 313.77 86.62 313.20 87.18
  C 311.36 88.99 309.83 90.98 306.96 90.99
  Q 297.73 91.02 288.68 90.96
  Q 288.26 90.96 288.26 90.54
  L 288.26 87.27
  A 0.47 0.46 0.0 0 1 288.73 86.81
  L 308.00 86.75
  Q 308.75 86.75 308.75 87.50
  L 308.74 89.84
  Z"
/>
<path fill="#ffffff" d="
  M 214.89 90.10
  L 215.01 77.74
  A 0.35 0.35 0.0 0 1 215.54 77.45
  L 219.06 79.51
  A 0.35 0.35 0.0 0 1 219.23 79.81
  L 219.30 86.55
  A 0.35 0.35 0.0 0 1 219.19 86.80
  L 215.48 90.36
  A 0.35 0.35 0.0 0 1 214.89 90.10
  Z"
/>
<rect fill="#ffffff" x="34.75" y="86.77" width="22.88" height="4.22" rx="0.61"/>
<rect fill="#ffffff" x="164.77" y="86.77" width="22.86" height="4.22" rx="0.60"/>
<rect fill="#ffffff" x="193.78" y="86.78" width="20.40" height="4.22" rx="0.53"/>
<rect fill="#ffffff" x="225.27" y="86.75" width="23.22" height="4.24" rx="0.43"/>
<path fill="#ffffff" d="
  M 255.58 86.81
  L 276.72 86.77
  A 0.40 0.40 0.0 0 1 277.12 87.16
  L 277.25 90.58
  A 0.40 0.40 0.0 0 1 276.85 90.99
  L 259.30 91.00
  A 0.40 0.40 0.0 0 1 259.03 90.90
  L 255.31 87.50
  A 0.40 0.40 0.0 0 1 255.58 86.81
  Z"
/>
</svg>
